<?xml version="1.0" encoding="iso-8859-1"?>
<!-- Generator: Adobe Illustrator 19.0.0, SVG Export Plug-In . SVG Version: 6.00 Build 0)  -->
<svg version="1.1" id="Capa_1" xmlns="http://www.w3.org/2000/svg" xmlns:xlink="http://www.w3.org/1999/xlink" x="0px" y="0px"
	 viewBox="0 0 480.017 480.017" style="enable-background:new 0 0 480.017 480.017;" xml:space="preserve">
<g>
	<g>
		<path d="M319.161,354.513c-4.403-0.363-8.267,2.913-8.63,7.316c-0.357,4.329,2.806,8.152,7.126,8.612
			c100.792,9.576,138.352,32.656,138.352,44.992c0,20.288-82.168,48.584-216,48.584s-216-28.296-216-48.584
			c0-12.336,37.6-35.416,138.352-45.016c4.393-0.468,7.576-4.409,7.108-8.802c-0.46-4.319-4.283-7.483-8.612-7.126
			c-35.856,3.416-152.848,17.832-152.848,60.944c0,42.4,116.712,64.584,232,64.584s232-22.184,232-64.584
			C472.009,372.321,355.017,357.905,319.161,354.513z"/>
	</g>
</g>
<g>
	<g>
		<path d="M338.225,40.073C312.378,13.901,276.956-0.57,240.177,0.017c-50.115,0.158-96.284,27.221-120.904,70.872
			c-25.335,44.755-26.833,99.159-4,145.24c27.666,56.298,61.296,109.464,100.312,158.584l18.328,23.064
			c1.518,1.91,3.824,3.024,6.264,3.024c2.447-0.003,4.757-1.126,6.272-3.048l17.848-22.64
			c38.957-49.397,72.734-102.666,100.8-158.968C393.817,157.606,383.099,87.38,338.225,40.073z M350.745,209.025
			c-27.565,55.31-60.736,107.643-98.992,156.176l-11.592,14.704l-12-15.144c-38.327-48.228-71.367-100.431-98.552-155.712
			c-20.489-41.331-19.153-90.132,3.568-130.28c21.905-38.768,62.983-62.744,107.512-62.752c32.23-0.49,63.267,12.181,85.944,35.088
			C366.892,93.529,376.51,156.521,350.745,209.025z"/>
	</g>
</g>
<g>
	<g>
		<path d="M300.529,118.241c-1.632-4.103-6.279-6.108-10.384-4.48c-4.105,1.633-6.109,6.286-4.476,10.391
			c0.001,0.003,0.002,0.006,0.004,0.009c3.791,9.544,4.628,20.007,2.4,30.032c-4.149,18.267-18.31,32.593-36.528,36.952
			c-16.477,3.935-33.815-0.987-45.768-12.992c-12.241-12.31-17.31-30.04-13.424-46.96c5.831-26.313,31.889-42.918,58.202-37.087
			c2.996,0.664,5.923,1.609,8.742,2.823c4.065,1.734,8.766-0.155,10.5-4.22c1.734-4.065-0.155-8.766-4.22-10.5
			c-12.683-5.4-26.748-6.649-40.184-3.568c-24.363,5.582-43.317,24.721-48.664,49.136c-5.082,22.256,1.625,45.562,17.76,61.712
			c12.179,12.134,28.68,18.932,45.872,18.896c4.938,0.012,9.861-0.524,14.68-1.6c24.354-5.605,43.291-24.753,48.624-49.168
			C306.6,144.475,305.507,130.753,300.529,118.241z"/>
	</g>
</g>
<g>
</g>
<g>
</g>
<g>
</g>
<g>
</g>
<g>
</g>
<g>
</g>
<g>
</g>
<g>
</g>
<g>
</g>
<g>
</g>
<g>
</g>
<g>
</g>
<g>
</g>
<g>
</g>
<g>
</g>
</svg>
